<svg width="100" height="100" viewBox="0 0 100 100" fill="none" xmlns="http://www.w3.org/2000/svg">
<path fill-rule="evenodd" clip-rule="evenodd" d="M100 19.7771C100 9.41374 91.5824 1 81.2191 1H18.7808C8.41755 1 0 9.41374 0 19.7771V80.022C0 90.3827 8.41755 98.7992 18.7809 98.7992H81.2191C91.5825 98.7992 100 90.3827 100 80.022L100 19.7771Z" fill="#0C3B7C"/>
<path fill-rule="evenodd" clip-rule="evenodd" d="M0.00390625 61.7576H49.9479V98.799H0.00394285L0.00390625 61.7576Z" fill="#0C3B7C"/>
<path d="M45.4475 65.7342L37.3932 65.7262V56.0956C37.3932 54.0378 38.1914 52.9669 39.9523 52.7222H45.4475C49.3663 52.7222 51.9014 55.193 51.9014 59.1921C51.9014 63.2995 49.4305 65.7302 45.4475 65.7342ZM37.3932 39.7583V37.2233C37.3932 35.0052 38.3318 33.9502 40.3895 33.8139H44.5129C48.0467 33.8139 50.1646 35.9277 50.1646 39.4695C50.1646 42.165 48.7125 45.3137 44.6413 45.3137H37.3932V39.7583ZM55.7319 49.3689L54.2759 48.5507L55.5475 47.4636C57.0275 46.1921 59.5064 43.3322 59.5064 38.3985C59.5064 30.8416 53.6462 25.9681 44.5771 25.9681H34.2284V25.9641H33.0492C30.3617 26.0644 28.2078 28.2505 28.1797 30.954V73.8326H44.7816C54.8616 73.8326 61.3676 68.3454 61.3676 59.8459C61.3676 55.2692 59.2657 51.3584 55.7319 49.3689Z" fill="white"/>
<path d="M65.6914 67.9095C65.6914 64.6339 68.3332 61.9839 71.5882 61.9839C74.8513 61.9839 77.5055 64.6339 77.5055 67.9095C77.5055 71.1809 74.8513 73.835 71.5881 73.835C68.3332 73.835 65.6914 71.1809 65.6914 67.9095Z" fill="#00BAFC"/>
</svg>
