<svg width="200" height="200" viewBox="0 0 200 200" fill="none" xmlns="http://www.w3.org/2000/svg">
<path d="M102 81.8179V120.545H155.818C153.455 133 146.363 143.546 135.727 150.636L168.181 175.818C187.09 158.364 197.999 132.728 197.999 102.273C197.999 95.1826 197.363 88.3638 196.181 81.819L102 81.8179Z" fill="#4285F4"/>
<path d="M45.9558 119.033L38.6361 124.637L12.7266 144.818C29.1811 177.454 62.9058 200 101.996 200C128.996 200 151.632 191.091 168.178 175.818L135.723 150.636C126.814 156.636 115.45 160.273 101.996 160.273C75.9966 160.273 53.9063 142.728 45.9967 119.091L45.9558 119.033Z" fill="#34A853"/>
<path d="M12.7265 55.1819C5.90868 68.6359 2 83.8179 2 99.9994C2 116.181 5.90868 131.363 12.7265 144.817C12.7265 144.907 45.9998 118.999 45.9998 118.999C43.9998 112.999 42.8176 106.636 42.8176 99.9984C42.8176 93.3612 43.9998 86.9979 45.9998 80.998L12.7265 55.1819Z" fill="#FBBC05"/>
<path d="M101.998 39.8182C116.726 39.8182 129.817 44.9089 140.271 54.7272L168.907 26.0912C151.544 9.90971 128.999 0 101.998 0C62.9079 0 29.1811 22.4545 12.7266 55.1819L45.9988 81.0001C53.9075 57.3635 75.9986 39.8182 101.998 39.8182Z" fill="#EA4335"/>
</svg>
